<?xml version="1.0" encoding="UTF-8"?><svg id="uuid-f178b490-2c85-491c-9bdc-a9f61460d7bc" xmlns="http://www.w3.org/2000/svg" viewBox="0 0 360 360"><defs><style>.uuid-4d0b5f67-05de-437b-9d8e-bf63ed95f1be{fill:#7924a3;}.uuid-6caaab4a-4975-40e0-8304-3b0f31b0006a{fill:#9d34d2;}.uuid-d391ea60-226e-434b-b5aa-fc2d081aed70{fill:#b25fdb;}.uuid-42960ac0-0e80-46cc-9433-3e612f1b1eb0{fill:#641e86;}</style></defs><path class="uuid-42960ac0-0e80-46cc-9433-3e612f1b1eb0" d="M360,162.48v.72c-.15-.02-.57.33-.69.51l-4.29,6.49-3.63,5.51-3.53,5.35-3.71,5.65-3.43,5.21-3.35,5.05-3.42,5.25-15.63,23.66-7.06,10.72-3.17,4.77-8.86,13.44-6.85,10.65-1.32,1.87-.08-.99.06-31.87-.19-.69.24-.32-.79-.33c1.82-.5,2.66-2.15,3.97-3.46l10.68-10.66,8.02-8.3,6.34-6.36,1.36-1.55,4.18-4.45,3.13-3.09,2.51-2.56,8.62-8.62,2.06-2.06,3.6-4.02,6.22-6.3,2.54-2.53,2.13-2.17c.82-.83,1.73-1.51,1.98-2.57l1.59-1.54c.15-.14.61-.41.77-.42Z"/><path class="uuid-42960ac0-0e80-46cc-9433-3e612f1b1eb0" d="M2.36,164.42c.04.3.2.98.46,1.22l1.16,1.04,2.51,2.5,2.54,2.53,6.54,6.64,3.28,3.67,2.07,2.05,8.61,8.62,2.51,2.56,3.13,3.09,4.19,4.45c.45.47.82,1.08,1.32,1.57l1.94,1.88,4.43,4.49,10.03,10.34,8.77,8.74c1.2,1.2,1.95,2.74,3.84,3.33l-.68.32.14.16-.18,1.11.06,31.62-.08.99-1.31-1.87-6.93-10.78-3.38-5.04-2.09-3.2-4.75-7.24-3.83-5.78-4.39-6.66-12.2-18.49-7.52-11.43-3.16-4.79-3.52-5.35-3.62-5.52-7.23-10.97-4.21-6.39c-.15-.22-.58-.63-.78-.64v-.72c.16,0,.61.27.79.44l1.57,1.5Z"/><path class="uuid-d391ea60-226e-434b-b5aa-fc2d081aed70" d="M123.33,172.03l-.16,1.33-6.9,12.51-4.66,8.54-.89,1.68,4.67,4.41,18.53,16.42-7.18-30.43-2.89-12.02c1.34,1.13,2.45,2.43,3.53,3.94l8.59,12,3.4,4.78,5.27,7.19,3.75,5.18,15.07,20.89,10.78,15.12,1.96,2.87,3.78,5.28,3.78-5.28,1.96-2.87,10.78-15.12,15.07-20.89,3.75-5.18,5.27-7.19,3.4-4.78,8.59-12c1.08-1.51,2.19-2.81,3.56-3.93l-2.91,12.02-7.18,30.44,18.78-16.65,4.42-4.19-.9-1.68-4.75-8.69-6.99-12.68c.05-.15.01-.51-.01-.67.24-.04.58-.46.74-.69l1.46-2.21,5.76-7.67,4.14-5.47,2.88-4.06,2.56-3.46,2.88-3.85,2.84-3.64,2.84-3.88,4.48-5.83,2.81-3.69,3.55-4.6,2.38-3.14,3.25-4.19,3.86-5.01c.37-.89.95-1.54,1.62-2.24l.97-.98-7.97,18.92-1.15,3-.89,2.16-2.33,5.83-4.95,12.33-2.05,5.14-.96,2.45-5.72,14.15-1.58,4-2.6,6.5-1.34,2.97-2.96,6.9-1.1,2.46c.35.38,1.27.32,1.61,0l3.45-3.3,3.83-3.59,2.41-2.14,12.97-11.54,3.27-2.97,2.54-2.27,7.31-6.36,6.1-5.68,3.95-3.49,3.34-2.92c.86-.75,1.43-1.59,2.72-2.3l-.86,2.17-9.33,11.67-15.51,19.98-8.62,10.84-10.7,13.56-21.78,27.11-4.81,5.83-19.4,23.26c-1.34,1.61-2.95,2.65-3.97,4.78l28.06-18.78c.46.08,1.02.52,1.4.99l4.4,5.44,3.15,3.82,5.44,6.79,1.48,1.89h-45.35s.92-2.42.92-2.42l5.07-13.65,5.31-14.11,4.84-12.48,2.33-6.78c-.86.29-1.1.87-1.67,1.5l-22.74,24.69-4.73,5.16-8.82,9.64-6.68,7.49c-.25.28-.59.73-.87.79-.33.07-.79-.47-1.06-.78l-6.66-7.49-4.03-4.44-32.38-35.19c-.56-.61-.76-1.13-1.56-1.37l2.4,6.94,4.25,10.91,7.91,21.09,3.91,10.5h-45.35s1.47-1.89,1.47-1.89l5.43-6.79,3.49-4.19,2.45-3.09,1.99-2.39c.21-.26.75-.61,1.04-.6l9.35,6.24,18.65,12.47c-.73-1.82-2.13-2.59-3.25-3.93l-20.17-24.15-4.8-5.83-21.67-26.99-10.9-13.81-3.02-3.79-17.66-22.57-3.06-3.96-9.52-11.92-.86-2.17c1.29.71,1.86,1.55,2.72,2.3l3.34,2.92,3.95,3.49,6.1,5.68,7.31,6.36,2.54,2.27,3.27,2.97,12.97,11.54,2.4,2.14,3.83,3.59,3.45,3.3c.33.32,1.29.39,1.61,0l-1.09-2.46-2.96-6.9-1.34-2.97-2.6-6.5-1.58-4-5.66-13.99-1.1-2.79-6.92-17.29-2.34-5.84-.88-2.16-1.15-3c-2.5-6.45-5.11-12.73-7.97-18.92l1.1,1.09c.62.65,1.14,1.29,1.49,2.12l3.86,5.01c1.13,1.47,2.22,2.86,3.34,4.34l2.18,2.86,3.32,4.35,3.13,4.07,4.79,6.23,2.34,3.19,3,3.95,2.92,3.82,2.56,3.46,2.8,3.93,4.13,5.47,5.85,7.81,1.82,2.82.35-.27Z"/><path class="uuid-4d0b5f67-05de-437b-9d8e-bf63ed95f1be" d="M357.64,164.44c-.25,1.07-1.17,1.74-1.98,2.57l-2.13,2.17-2.54,2.53-6.22,6.3-3.6,4.02-2.06,2.06-8.62,8.62-2.51,2.56-3.13,3.09-4.18,4.45-1.36,1.55-6.34,6.36-8.02,8.3-10.68,10.66c-1.31,1.3-2.14,2.96-3.97,3.46l.79.33-21.3.11-1.99-.08,2-5.01c.47-1.17,1.1-2.2,1.04-3.53l-6.94,4.87-10.26,7.01-6.26,4.32-10.76,7.26-28.06,18.78c1.02-2.13,2.63-3.17,3.97-4.78l19.4-23.26,4.81-5.83,21.78-27.11,10.7-13.56,8.62-10.84,15.51-19.98,9.33-11.67-3.63,8.93-1.81,4.21-1.82,4.13-2.18,5.05-1.35,3.2-2.35,5.54-1.57,3.75-2.04,4.9-3.23,7.59-2.06,4.87-3.38,7.93-1.92,4.55-1.24,2.86-2.58,6.09c.79.31,1.4.04,2.01-.4l3.37-2.41,2.93-2.09,3.78-2.67,1.6-1.12,32.57-22.75,3.16-2.19,3.84-2.67,6.62-4.62,3.65-2.55,4.25-3,6.47-4.56,5.86-4.24,1.53-1.12,2.52-1.79,1.95-1.16Z"/><path class="uuid-4d0b5f67-05de-437b-9d8e-bf63ed95f1be" d="M123.38,248.41l-10.75-7.25-6.27-4.32-10.26-7.01-6.95-4.87c-.03,1.32.57,2.36,1.04,3.53l2,5-1.98.08-21.2-.12.68-.32c-1.89-.6-2.64-2.14-3.84-3.33l-8.77-8.74-10.03-10.34-4.43-4.49-1.94-1.88c-.5-.49-.88-1.1-1.32-1.57l-4.19-4.45-3.13-3.09-2.51-2.56-8.61-8.62-2.07-2.05-3.28-3.67-6.54-6.64-2.54-2.53-2.51-2.5-1.16-1.04c-.26-.24-.41-.92-.46-1.22l1.95,1.18,2.52,1.79,1.53,1.12,5.86,4.24,6.47,4.56,4.25,3,3.79,2.65,6.48,4.52,3.98,2.77,4.44,3.07,31.02,21.68,1.88,1.32,2.53,1.77,4.05,2.89,3.78,2.75c.34.25,1.52.19,1.45-.2l-2.49-5.98-1.11-2.54-1.99-4.71-3.37-7.92-2.06-4.87-3.23-7.58-2.05-4.9-1.57-3.74-2.41-5.7-2.42-5.72-2.12-4.82-.95-2.17-1.6-3.73-3.64-8.92,9.52,11.92,3.06,3.96,17.66,22.57,3.02,3.79,10.9,13.81,21.67,26.99,4.8,5.83,20.17,24.15c1.12,1.34,2.53,2.11,3.25,3.93l-18.65-12.47-9.35-6.24Z"/><polygon class="uuid-6caaab4a-4975-40e0-8304-3b0f31b0006a" points="203.6 140.13 201.93 144.61 199.92 150.04 195.8 161.46 192.19 171.53 189.87 177.84 185.45 189.99 183.91 194.49 180.02 206.37 176.41 195.33 174.57 190.19 170.13 177.84 167.8 171.53 164.2 161.46 160.08 150.04 158.07 144.61 156.39 140.04 158.51 135.97 159.58 133.66 160.87 131.06 162.92 126.9 164.64 123.35 166.17 120.28 167.98 116.54 169.75 112.82 171.73 108.82 173.14 105.9 174.66 102.92 178.99 94.04 179.94 92.37 181.94 95.97 185.15 102.6 186.97 106.27 188.33 109 190.24 112.85 193.44 119.5 195.36 123.35 197.08 126.9 199.13 131.06 200.41 133.66 201.58 136.13 203.6 140.13"/><path class="uuid-d391ea60-226e-434b-b5aa-fc2d081aed70" d="M203.6,140.13l1.23,2.33,3.57,7.26,2.61,5.28,4.81,9.89,2.27,4.66c.35.72.33,1.38-.13,2.05l-2.12,3.12-5.89,8.59-3.9,5.69-1.17,1.7-3.3,4.85-1.79,2.53-2.14,3.14-1.46,2.14-2.96,4.28-8.47,12.16-3.87,5.72c-.18.27-.8.65-1.17.85l-3.61-5.29-3.85-5.51-5.38-7.8-3.05-4.41-1.46-2.14-2.14-3.14-1.79-2.53-3.3-4.85-1.17-1.7-3.81-5.55-5.99-8.73-2.12-3.12c-.46-.68-.48-1.33-.13-2.05l2.27-4.66,3.78-7.82,1.28-2.54,2.37-4.82,3.57-7.26,1.22-2.42,1.68,4.57,2.01,5.44,4.12,11.42,3.61,10.07,2.32,6.31,4.44,12.35,1.84,5.14,3.61,11.04,3.88-11.88,1.55-4.5,4.41-12.16,2.33-6.3,3.61-10.07,4.12-11.42,2-5.44,1.68-4.48Z"/><path class="uuid-6caaab4a-4975-40e0-8304-3b0f31b0006a" d="M123.33,172.03l-.35.27-1.82-2.82-5.85-7.81-4.13-5.47-2.8-3.93-2.56-3.46-2.92-3.82-3-3.95-2.34-3.19-4.79-6.23-3.13-4.07-3.32-4.35-2.18-2.86c-1.13-1.48-2.21-2.87-3.34-4.34l-3.86-5.01c-.35-.83-.87-1.47-1.49-2.12l-1.1-1.09-.17-.97,6.05,4.03,16.74,11.27,5.31,3.59,3.15,2.16,3.24,2.27,10.43,7.11,5.26,3.62,4.92,3.49,3.07,2.17,4.52,3.16-1.89,3.05-2.37,3.89-2,3.28-7.26,12.12Z"/><path class="uuid-6caaab4a-4975-40e0-8304-3b0f31b0006a" d="M285.65,107.78l-.97.98c-.67.7-1.25,1.35-1.62,2.24l-3.86,5.01-3.25,4.19-2.38,3.14-3.55,4.6-2.81,3.69-4.48,5.83-2.84,3.88-2.84,3.64-2.88,3.85-2.56,3.46-2.88,4.06-4.14,5.47-5.76,7.67-1.46,2.21c-.15.23-.5.65-.74.69l-.11-.65-7.13-11.8-1.98-3.3-2.38-3.89-1.89-3.05,4.52-3.16,3.07-2.17,4.92-3.49,5.26-3.62,10.43-7.11,3.24-2.27,3.15-2.16,5.31-3.59,16.6-11.18,6.19-4.13-.17.97Z"/><polygon class="uuid-4d0b5f67-05de-437b-9d8e-bf63ed95f1be" points="123.17 173.36 123.85 174.46 126.74 186.49 133.92 216.92 115.39 200.5 110.72 196.08 111.62 194.41 116.28 185.87 123.17 173.36"/><polygon class="uuid-4d0b5f67-05de-437b-9d8e-bf63ed95f1be" points="236.17 174.47 236.64 173.04 243.63 185.72 248.38 194.41 249.28 196.09 244.86 200.27 226.08 216.93 233.26 186.49 236.17 174.47"/><path class="uuid-6caaab4a-4975-40e0-8304-3b0f31b0006a" d="M60.57,188.14c-.43-.06-1.16-.4-1.46-.73l-3.06-3.24-7.66-7.68-6.18-6.07-10.12-3.52-15.07-4.74c-.57-.18-1.11-.46-1.84-.98l2.33.17,4.1.46,8.4.5,2.63.19,4.81.45,7.19.7c1.02.1,1.42.37,1.95,1.23l10.65,17.35,1.52,2.58,1.82,3.31Z"/><path class="uuid-6caaab4a-4975-40e0-8304-3b0f31b0006a" d="M342.97,162.17l-15.06,4.73-10.3,3.59-13.55,13.55c-1.47,1.47-2.77,3.18-4.51,4.16l1.88-3.68,1.44-2.44,11.23-18.27,8.47-.86,4.8-.45,2.63-.19,8.4-.5,4.1-.47,2.33-.17c-.73.53-1.27.8-1.84.98Z"/><path class="uuid-4d0b5f67-05de-437b-9d8e-bf63ed95f1be" d="M342.97,162.17l-1.38,1.09-7.2,4.32-8.1,4.86-4.61,2.83-10.9,6.83-2.09,1.31-5.62,3.51-4.52,2.63c.32-.63.67-1.17,1-1.36,1.75-.98,3.04-2.69,4.51-4.16l13.55-13.55,10.3-3.59,15.06-4.73Z"/><path class="uuid-4d0b5f67-05de-437b-9d8e-bf63ed95f1be" d="M60.57,188.14l.9,1.43-4.52-2.65-5.62-3.5-2.09-1.31-10.75-6.74-4.76-2.92-8.1-4.86-7.2-4.33-1.39-1.09,15.07,4.74,10.12,3.52,6.18,6.07,7.66,7.68,3.06,3.24c.3.32,1.03.67,1.46.73Z"/><path class="uuid-4d0b5f67-05de-437b-9d8e-bf63ed95f1be" d="M207.13,267.36h-54.27s-3.91-10.5-3.91-10.5l-7.91-21.09-4.25-10.91-2.4-6.94c.8.24,1,.76,1.56,1.37l32.38,35.19,4.03,4.44,6.66,7.49c.28.31.73.85,1.06.78.27-.06.62-.51.87-.79l6.68-7.49,8.82-9.64,4.73-5.16,22.74-24.69c.58-.63.81-1.21,1.67-1.5l-2.33,6.78-4.84,12.48-5.31,14.11-5.07,13.65-.92,2.42Z"/><polygon class="uuid-6caaab4a-4975-40e0-8304-3b0f31b0006a" points="104.17 267.36 68.94 267.35 69.02 266.36 68.96 234.74 69.14 233.62 73.38 237.66 78.03 242.13 81.62 245.51 92.63 256.09 104.17 267.36"/><path class="uuid-6caaab4a-4975-40e0-8304-3b0f31b0006a" d="M291.06,267.35h-35.23s5.67-5.61,5.67-5.61l6.98-6.71,10.39-9.98,4.35-4.09,6.3-6.18c.39-.38.97-.78,1.33-.99l.19.69-.06,31.87.08.99Z"/><path class="uuid-6caaab4a-4975-40e0-8304-3b0f31b0006a" d="M123.38,248.41c-.29-.01-.83.34-1.04.6l-1.99,2.39-2.45,3.09-3.49,4.19-5.43,6.79-1.47,1.89h-1.89s-2.25-6.21-2.25-6.21l-2.86-7.18-3.45-9.02-2.28-5.63-1.89-4.19c-.16-.37-.34-1.26-.71-1.31l-1.98-.24,1.98-.08-2-5c-.47-1.17-1.07-2.21-1.04-3.53l6.95,4.87,10.26,7.01,6.27,4.32,10.75,7.25Z"/><path class="uuid-6caaab4a-4975-40e0-8304-3b0f31b0006a" d="M269.79,233.58l-1.97.23c-.39.05-.56.96-.73,1.32l-1.96,4.35-2.2,5.47-3.45,9.02-2.86,7.18-2.25,6.21h-1.89s-1.48-1.89-1.48-1.89l-5.44-6.79-3.15-3.82-4.4-5.44c-.38-.47-.93-.91-1.4-.99l10.76-7.26,6.26-4.32,10.26-7.01,6.94-4.87c.06,1.33-.57,2.36-1.04,3.53l-2,5.01,1.99.08Z"/><path class="uuid-d391ea60-226e-434b-b5aa-fc2d081aed70" d="M90.21,233.58l1.98.24c.37.04.55.94.71,1.31l1.89,4.19,2.28,5.63,3.45,9.02,2.86,7.18,2.25,6.21h-1.46s-11.54-11.27-11.54-11.27l-11.01-10.58-3.59-3.38-4.65-4.47-4.23-4.03-.14-.16,21.2.12Z"/><path class="uuid-d391ea60-226e-434b-b5aa-fc2d081aed70" d="M291.09,233.48l-.24.32c-.36.21-.94.61-1.33.99l-6.3,6.18-4.35,4.09-10.39,9.98-6.98,6.71-5.67,5.62h-1.46s2.25-6.21,2.25-6.21l2.86-7.18,3.45-9.02,2.2-5.47,1.96-4.35c.16-.37.33-1.28.73-1.32l1.97-.23,21.3-.11Z"/></svg>